<svg id="Layer_1" data-name="Layer 1" xmlns="http://www.w3.org/2000/svg" xmlns:xlink="http://www.w3.org/1999/xlink" viewBox="0 0 800 800"><defs><style>.cls-1{fill:url(#radial-gradient);}.cls-2{fill:#333;}</style><radialGradient id="radial-gradient" cx="387.039" cy="316.149" r="189.255" gradientUnits="userSpaceOnUse"><stop offset="0" stop-color="#f490a8"/><stop offset="1" stop-color="#ec3863"/></radialGradient></defs><title>FU-TURE_logo_final</title><path class="cls-1" d="M401.652,118c-113.28,0-205.108,91.843-205.108,205.109a204.67,204.67,0,0,0,78,160.967c-.242-3.418-.328-6.737-.4-9.956-.028-1.368-.071-2.749-.114-4.117-.085-1.809-.071-3.532.014-5.227l.143-3.646.285-7.592V453.3l.028-.228c.071-1.026.143-2.051.228-3.063A179.469,179.469,0,0,1,528.478,196.141c1.04-.086,2.079-.157,3.119-.228l.228-.015h.228l7.606-.284,3.775-.143.057-.014h.071l1.894-.057.442-.014.456.014,1.894.043h.114l.128.014,4.587.128c3.076.071,6.238.157,9.514.385A204.693,204.693,0,0,0,401.652,118ZM587.66,236.564c-1.424.342-2.82.684-4.216,1.011l-1.082.257c-1.752.47-3.5.954-5.242,1.424-2.763.755-5.612,1.538-8.475,2.265l-6.139,1.837a178.565,178.565,0,0,1,18.616,79.751,183.313,183.313,0,0,1-1.3,21.735c-.128,1.04-.256,2.094-.413,3.134A179.667,179.667,0,0,1,321.859,483.962l-1.837,6.139c-.727,2.877-1.5,5.726-2.265,8.489-.47,1.724-.94,3.476-1.41,5.214l-.228,1q-.513,2.136-1.025,4.315a204.421,204.421,0,0,0,86.558,19.1c113.28,0,205.109-91.829,205.109-205.108A204.413,204.413,0,0,0,587.66,236.564Z"/><path class="cls-1" d="M592.574,217.649c-4.387,1.224-8.717,2.264-13.033,3.29-.455.114-.9.214-1.353.327-4.743,1.254-9.429,2.607-14.087,3.775l-10.141,3.034-3.647,1.1c-4.558,1.438-9.044,3.019-13.517,4.515a392.587,392.587,0,0,0-51.177,22.106,357.226,357.226,0,0,0-87.442,63.854q-6.581,6.58-12.777,13.489,5.469-3.354,11.224-6.239c2.493-1.239,5.028-2.421,7.578-3.518,1.282-.555,2.578-1.1,3.874-1.609s2.593-1.012,3.9-1.482,2.621-.94,3.945-1.381a147.783,147.783,0,0,1,20.2-5.171c1.367-.242,2.735-.47,4.1-.669a138.183,138.183,0,0,1,20.682-1.567c1.111,0,2.207.014,3.3.043,23.089.555,45.95,6.765,64.524,19.343-2.834,0-5.583-.143-8.318-.285-2.735-.071-5.455-.071-8.133-.185l-8,.014c-2.65.043-5.3.171-7.905.242a230.051,230.051,0,0,0-30.582,3.333,205.138,205.138,0,0,0-105.118,52.4,182.01,182.01,0,0,0-21.052,22.434,187.266,187.266,0,0,0-27.462,49.411c-2.065,5.5-3.532,10.185-4.5,13.518l-1.082,3.632-3.034,10.17c-1.168,4.657-2.521,9.344-3.775,14.087-.1.441-.213.883-.313,1.324-1.025,4.316-2.051,8.675-3.276,13.076-1.111-4.857-1.98-9.757-2.863-14.714-.1-.74-.2-1.481-.285-2.222-.527-4.2-.954-8.446-1.339-12.7-.4-5-.413-10.013-.584-15.084a36.832,36.832,0,0,1,.015-3.775l.042-1,.1-2.791.285-7.592a244.4,244.4,0,0,1,11.594-60.023,267.253,267.253,0,0,1,169.514-169.6,243.025,243.025,0,0,1,60.037-11.58l7.606-.285,2.763-.1,1.012-.043,1.894-.057,1.894.043c5.057.185,10.071.185,15.084.584,4.273.4,8.518.826,12.72,1.368.741.085,1.467.185,2.208.284C582.831,215.654,587.732,216.538,592.574,217.649Z"/><path class="cls-2" d="M217.275,625.7c1.207,0,1.85.563,1.85,1.77v7.64c0,1.207-.643,1.77-1.85,1.77H182.368c-8.285,0-10.7,2.493-10.7,10.939v1.609h45.2a1.542,1.542,0,0,1,1.768,1.769v6.354a1.542,1.542,0,0,1-1.768,1.769h-45.2v20.914A1.543,1.543,0,0,1,169.9,682h-8.688c-1.207,0-1.85-.563-1.85-1.769v-33.3c0-15.443,6.274-21.234,22.521-21.234Z"/><path class="cls-2" d="M241.491,625.7a1.544,1.544,0,0,1,1.771,1.77v32.092c0,8.526,2.413,11.02,10.7,11.02h22.279c8.285,0,10.618-2.494,10.618-11.02V627.467a1.544,1.544,0,0,1,1.77-1.77h8.766a1.544,1.544,0,0,1,1.77,1.77v33.3c0,15.443-6.194,21.234-22.521,21.234H253.477c-16.247,0-22.521-5.791-22.521-21.234v-33.3c0-1.207.643-1.77,1.85-1.77Z"/><path class="cls-2" d="M374.94,625.7c1.207,0,1.85.563,1.85,1.77v7.882a1.657,1.657,0,0,1-1.85,1.85H349.684v43.032a1.543,1.543,0,0,1-1.77,1.769h-8.766a1.544,1.544,0,0,1-1.77-1.769V637.2H312.123a1.658,1.658,0,0,1-1.851-1.85v-7.882c0-1.207.644-1.77,1.851-1.77Z"/><path class="cls-2" d="M399.156,625.7a1.544,1.544,0,0,1,1.77,1.77v32.092c0,8.526,2.414,11.02,10.7,11.02H433.9c8.284,0,10.618-2.494,10.618-11.02V627.467a1.544,1.544,0,0,1,1.77-1.77h8.766a1.544,1.544,0,0,1,1.77,1.77v33.3c0,15.443-6.194,21.234-22.521,21.234H411.142c-16.247,0-22.522-5.791-22.522-21.234v-33.3c0-1.207.644-1.77,1.851-1.77Z"/><path class="cls-2" d="M493.513,649.988a1.279,1.279,0,0,1,1.447,1.447v5.791a1.279,1.279,0,0,1-1.447,1.448H469.3a1.279,1.279,0,0,1-1.447-1.448v-5.791a1.279,1.279,0,0,1,1.447-1.447Z"/><path class="cls-2" d="M551.748,625.7c12.306,0,17.294,5.711,17.294,16.569v4.585c0,9.169-3.538,14.558-11.986,16.087l13.756,17.051A1.233,1.233,0,0,1,569.765,682H559.39c-1.367,0-1.77-.322-2.254-1.045l-12.706-16.73H518.448v16.006A1.542,1.542,0,0,1,516.681,682h-8.689c-1.206,0-1.85-.563-1.85-1.769V628.11a2.132,2.132,0,0,1,2.414-2.413Zm-33.3,28.714h30.807c5.47,0,7.481-2.332,7.481-7.158v-3.379c0-4.825-2.011-7.158-7.481-7.158H519.5c-.724,0-1.047.321-1.047.965Z"/><path class="cls-2" d="M638.787,625.7c1.207,0,1.85.563,1.85,1.77v7.64c0,1.207-.643,1.77-1.85,1.77H603.639c-8.365,0-10.7,2.493-10.7,10.939v.8h45.446a1.543,1.543,0,0,1,1.768,1.77v6.353a1.543,1.543,0,0,1-1.768,1.77H592.94v1.367c0,8.446,2.334,10.939,10.7,10.939h35.148c1.207,0,1.85.564,1.85,1.771v7.641c0,1.206-.643,1.769-1.85,1.769H603.4c-16.247,0-22.521-5.791-22.521-21.234V646.931c0-15.443,6.274-21.234,22.521-21.234Z"/></svg>